<svg width="527" height="248" viewBox="0 0 527 248" fill="none" xmlns="http://www.w3.org/2000/svg">
<line x1="246.899" y1="247.399" x2="246.899" y2="-1.52369e-05" stroke="#236DF5"/>
<line x1="247.399" y1="0.500031" x2="1.52151e-05" y2="0.500009" stroke="#236DF5"/>
<line x1="3.05176e-05" y1="61.3498" x2="172.882" y2="61.3498" stroke="#236DF5"/>
<line x1="0.500031" y1="2.18557e-08" x2="0.500028" y2="61.8499" stroke="#236DF5"/>
<line x1="173.382" y1="61.8498" x2="173.382" y2="185.55" stroke="#236DF5"/>
<line x1="172.882" y1="186.05" x2="3.04759e-05" y2="186.05" stroke="#236DF5"/>
<line x1="0.500031" y1="185.55" x2="0.500028" y2="247.399" stroke="#236DF5"/>
<line x1="3.05176e-05" y1="246.899" x2="247.399" y2="246.899" stroke="#236DF5"/>
<line y1="-0.5" x2="247.399" y2="-0.5" transform="matrix(4.37114e-08 -1 -1 -4.37114e-08 278.697 247.399)" stroke="#236DF5"/>
<line y1="-0.5" x2="247.399" y2="-0.5" transform="matrix(1 -8.74228e-08 -8.74228e-08 -1 278.697 3.05176e-05)" stroke="#236DF5"/>
<line y1="-0.5" x2="172.882" y2="-0.5" transform="matrix(-1 0 0 1 526.096 61.8498)" stroke="#236DF5"/>
<line y1="-0.5" x2="61.8499" y2="-0.5" transform="matrix(4.37114e-08 1 1 -4.37114e-08 526.096 0)" stroke="#236DF5"/>
<line y1="-0.5" x2="123.7" y2="-0.5" transform="matrix(6.55671e-08 1 1 -6.55671e-08 353.215 61.8498)" stroke="#236DF5"/>
<line y1="-0.5" x2="172.882" y2="-0.5" transform="matrix(1 -8.32777e-08 -8.32777e-08 -1 353.215 185.55)" stroke="#236DF5"/>
<line y1="-0.5" x2="61.8499" y2="-0.5" transform="matrix(4.37114e-08 1 1 -4.37114e-08 526.096 185.55)" stroke="#236DF5"/>
<line y1="-0.5" x2="247.399" y2="-0.5" transform="matrix(-1 0 0 1 526.096 247.399)" stroke="#236DF5"/>
<path d="M3.05176e-05 0H247.399V61.8499H3.05176e-05V0Z" fill="#236DF5"/>
<path d="M3.05176e-05 185.55H247.399V247.399H3.05176e-05V185.55Z" fill="#236DF5"/>
<path d="M278.697 185.55H526.096V247.399H278.697V185.55Z" fill="#236DF5"/>
<path d="M278.697 247.399V-5.78165e-06H353.215V247.399H278.697Z" fill="#236DF5"/>
<path d="M172.882 247.399L172.882 -5.78165e-06H247.399V247.399H172.882Z" fill="#236DF5"/>
<path d="M278.697 0H526.096V61.8499H278.697V0Z" fill="#236DF5"/>
</svg>
